<?xml version="1.0" encoding="UTF-8"?>
<svg version="1.1" xmlns="http://www.w3.org/2000/svg" width="284" height="285">
<path d="M0 0 C20.06353354 -0.04643751 40.12705173 -0.08206043 60.19062805 -0.10362434 C69.50796344 -0.1139061 78.82526467 -0.12790664 88.14257812 -0.15087891 C96.27020003 -0.17090826 104.39779718 -0.18373893 112.52544308 -0.18817699 C116.82291163 -0.19076832 121.12030941 -0.19679324 125.41775513 -0.21146011 C129.47574666 -0.22519546 133.53363934 -0.229191 137.59165192 -0.22621536 C139.06848948 -0.22675849 140.54533091 -0.23063979 142.02214813 -0.23841095 C156.18197833 -0.30916636 169.93790607 0.81392708 183.5 5.125 C184.47412842 5.42849365 185.44825684 5.7319873 186.4519043 6.04467773 C198.86681065 10.05967214 209.96487205 16.08519709 221 23 C222.37091797 23.76376953 222.37091797 23.76376953 223.76953125 24.54296875 C224.50558594 25.02378906 225.24164063 25.50460938 226 26 C226 26.66 226 27.32 226 28 C227.32 28.33 228.64 28.66 230 29 C230 29.66 230 30.32 230 31 C230.56460938 31.24878906 231.12921875 31.49757813 231.7109375 31.75390625 C255.18726881 44.53368388 272.14336683 76.7812894 279.78125 101.3359375 C280.20267197 102.88658118 280.6069471 104.44192372 281 106 C281.39952881 107.54337036 281.39952881 107.54337036 281.80712891 109.11791992 C284.17419394 119.36237023 284.46199143 129.25961281 284.39111328 139.73413086 C284.37500185 142.56217516 284.39106302 145.38879508 284.41015625 148.21679688 C284.42318058 158.56383757 283.82103627 167.98816666 281 178 C280.75008301 178.91289795 280.50016602 179.8257959 280.24267578 180.76635742 C274.15832585 201.82010829 264.10374825 220.76031151 249.04296875 236.78125 C246.91029305 239.03139851 246.91029305 239.03139851 244.86328125 241.78125 C244.24839844 242.5134375 243.63351563 243.245625 243 244 C242.34 244 241.68 244 241 244 C240.67 244.99 240.34 245.98 240 247 C237.671875 249.19140625 237.671875 249.19140625 234.75 251.5625 C233.79609375 252.34753906 232.8421875 253.13257813 231.859375 253.94140625 C229.25696635 255.81499827 227.02038092 256.98034586 224 258 C224 258.66 224 259.32 224 260 C220.87392111 262.30962064 217.38251281 264.09418121 214 266 C212.92234375 266.63550781 211.8446875 267.27101563 210.734375 267.92578125 C188.25881197 280.85610446 163.45288633 285.18125535 137.81982422 285.11352539 C136.31097923 285.1132428 134.8021341 285.11340265 133.29328918 285.1139679 C129.22581701 285.11425308 125.15837474 285.10840161 121.09090948 285.10139394 C116.82949827 285.0951138 112.56808627 285.09455293 108.30667114 285.09336853 C100.24986505 285.0902689 92.19307264 285.08207405 84.13627255 285.07201904 C73.24007752 285.05871757 62.34387872 285.05334694 51.44767761 285.04751682 C34.29844151 285.03813317 17.14923426 285.01820513 0 285 C0 245.07 0 205.14 0 164 C8.25 164 16.5 164 25 164 C25 195.68 25 227.36 25 260 C47.00407001 259.90300791 47.00407001 259.90300791 69.00793076 259.77792263 C76.88645446 259.72833919 84.76492652 259.68284168 92.64355469 259.65356445 C98.88814885 259.63034543 105.13259187 259.59669023 111.37706554 259.55129844 C114.6731522 259.52768222 117.96906536 259.5103095 121.26523209 259.50238609 C146.22671212 259.43638974 170.27547619 258.24710384 193 247 C193.99 246.54625 194.98 246.0925 196 245.625 C199.97804892 243.4702235 203.72938439 241.00314218 207.51171875 238.5234375 C210 237 210 237 213 236 C213 235.34 213 234.68 213 234 C214.57421875 232.66796875 214.57421875 232.66796875 216.6875 231.1875 C223.05654776 226.55038628 230.41652898 220.16694205 234 213 C234.66 213 235.32 213 236 213 C236.27328125 212.43152344 236.5465625 211.86304688 236.828125 211.27734375 C238.02472097 208.95195892 239.36049195 206.77749536 240.75 204.5625 C244.34570166 198.58716123 247.26710727 192.41121861 250 186 C250.68449219 184.41445313 250.68449219 184.41445313 251.3828125 182.796875 C261.51195987 157.20106548 261.04918868 124.48437789 250.23339844 99.20849609 C245.08444912 87.39602348 239.19461789 77.05117325 230.7578125 67.25 C229 65 229 65 229 63 C228.01 62.67 227.02 62.34 226 62 C225.4225 61.2575 224.845 60.515 224.25 59.75 C222.27286795 57.33350527 220.77677935 56.02928355 218.25 54.3125 C217.1775 53.549375 216.105 52.78625 215 52 C215 51.34 215 50.68 215 50 C214.25492188 49.72414062 213.50984375 49.44828125 212.7421875 49.1640625 C210.22950279 48.09742426 208.3290414 46.95943137 206.125 45.375 C183.37743309 29.93239218 159.23849351 25.91011189 132.14355469 25.79467773 C130.69352455 25.78507329 129.24349706 25.77506182 127.79347229 25.76467896 C123.89556401 25.73790139 119.99764397 25.71674683 116.09969616 25.69667697 C112.01177575 25.67464769 107.92389048 25.64734275 103.83599854 25.62062073 C96.11219503 25.5709209 88.38837178 25.52589888 80.66453004 25.48259836 C71.8639123 25.43303053 63.06332985 25.37818557 54.26274633 25.32291877 C36.17519688 25.20944785 18.08761348 25.10272149 0 25 C0 16.75 0 8.5 0 0 Z " fill="#64D6BF" transform="translate(0,0)"/>
<path d="M0 0 C37.22209116 -0.1209091 37.22209116 -0.1209091 52.89453125 -0.14648438 C63.68933417 -0.16424215 74.48406653 -0.18504706 85.27880859 -0.22631836 C93.14274227 -0.25636984 101.00661835 -0.2756101 108.87060785 -0.28226548 C113.02838943 -0.28615127 117.18600633 -0.29518043 121.34373474 -0.31719017 C125.27043651 -0.33780524 129.19690839 -0.34378427 133.12365913 -0.33932304 C134.55212727 -0.34013722 135.98060445 -0.3459521 137.40902519 -0.35761642 C161.36334302 -0.54335393 183.01824923 6.29098485 202 21 C202 21.66 202 22.32 202 23 C202.56589844 23.2475 203.13179687 23.495 203.71484375 23.75 C218.4159442 31.79162759 227.7459928 51.72665892 232.44628906 67.09716797 C239.55036544 91.51038283 236.51962561 116.15190236 224.6875 138.625 C221.53096335 144.03193817 217.78070637 149.01882191 214 154 C212.8553125 155.546875 212.8553125 155.546875 211.6875 157.125 C196.28767345 173.59923305 174.07482354 185.43674415 151.43221855 187.19995689 C148.73141224 187.28932252 146.03599957 187.32393256 143.33374023 187.3347168 C142.31951492 187.34636871 141.30528961 187.35802063 140.2603302 187.37002563 C136.94310091 187.4057108 133.62594323 187.42778311 130.30859375 187.44921875 C127.99356964 187.47048941 125.67855184 187.49245748 123.36354065 187.51509094 C118.53137038 187.56032988 113.69920634 187.59917358 108.86694336 187.63305664 C102.65909795 187.67681778 96.45145505 187.73354958 90.2437582 187.7946043 C85.47334382 187.84064688 80.70289682 187.88149462 75.93242073 187.92057228 C73.64175403 187.93966811 71.35109756 187.960032 69.06045341 187.98166466 C65.87421877 188.01066553 62.6880087 188.033059 59.50170898 188.0534668 C58.5485379 188.06327072 57.59536682 188.07307465 56.61331177 188.08317566 C55.32031914 188.08939941 55.32031914 188.08939941 54.00120544 188.0957489 C52.87167277 188.10429665 52.87167277 188.10429665 51.71932125 188.11301708 C50 188 50 188 49 187 C48.9043839 185.54518505 48.87811649 184.08574514 48.87974548 182.62779236 C48.87837082 181.68403244 48.87699615 180.74027252 48.87557983 179.76791382 C48.88097275 178.20238266 48.88097275 178.20238266 48.88647461 176.60522461 C48.88632858 175.51267868 48.88618256 174.42013275 48.8860321 173.29447937 C48.88673178 169.66374767 48.89452671 166.03306654 48.90234375 162.40234375 C48.90420774 159.89270557 48.90563173 157.38306702 48.90663147 154.87342834 C48.91006652 148.93065407 48.91795727 142.98789616 48.92798096 137.04513031 C48.9421942 128.43224996 48.94745261 119.81936343 48.95378876 111.2064743 C48.96350144 99.13763437 48.98265694 87.06884226 49 75 C32.83 75 16.66 75 0 75 C0 50.25 0 25.5 0 0 Z M23 24 C23 32.91 23 41.82 23 51 C39.17 51 55.34 51 72 51 C72 88.29 72 125.58 72 164 C83.9625 164.04125 95.925 164.0825 108.25 164.125 C113.8811084 164.15231201 113.8811084 164.15231201 119.62597656 164.18017578 C123.04000673 164.18687145 123.04000673 164.18687145 126.45404053 164.19088745 C127.95519197 164.19392537 129.45633905 164.20088899 130.9574585 164.21115112 C140.15269122 164.2707794 148.96553429 163.93518519 158 162 C158.95996887 161.79827179 159.91993774 161.59654358 160.90899658 161.38870239 C172.22740487 158.871649 182.71369273 152.00569527 191 144 C191.35835937 143.28199219 191.71671875 142.56398438 192.0859375 141.82421875 C193 140 193 140 196 139 C208.32777205 124.53969866 213.61448376 105.88878477 212.22753906 87.09960938 C210.61261976 72.19799347 204.60208453 59.42165763 195 48 C194.38511719 47.18273437 193.77023438 46.36546875 193.13671875 45.5234375 C183.0698977 33.63465067 167.23610504 26.05507047 152 24 C142.79469891 23.34769066 133.55127046 23.51785998 124.32884407 23.59442425 C120.75616698 23.61973791 117.18347072 23.62180314 113.61071777 23.62652588 C106.87146505 23.63886894 100.13247749 23.67157055 93.39334059 23.71192384 C85.70996116 23.75691467 78.02656785 23.77869663 70.3430891 23.79870558 C54.56188051 23.84031305 38.78103637 23.91355407 23 24 Z " fill="#4BC89C" transform="translate(0,49)"/>
<path d="M0 0 C0.99026436 -0.00262848 0.99026436 -0.00262848 2.00053406 -0.00531006 C4.19317213 -0.00972826 6.38573018 -0.00679038 8.57836914 -0.00341797 C10.09672562 -0.0040911 11.615082 -0.0050612 13.13343811 -0.00631714 C16.32041446 -0.00779413 19.50736283 -0.00563981 22.69433594 -0.00097656 C26.78467255 0.0047159 30.87494348 0.00144481 34.96527767 -0.00454903 C38.10246782 -0.00815873 41.23964235 -0.00701408 44.37683296 -0.00442123 C45.88515798 -0.00375285 47.39348441 -0.00457732 48.90180779 -0.00690079 C51.0087956 -0.00943347 53.11567642 -0.00557779 55.22265625 0 C57.02348915 0.00119339 57.02348915 0.00119339 58.86070251 0.00241089 C61.67602539 0.12939453 61.67602539 0.12939453 63.67602539 1.12939453 C63.67602539 1.78939453 63.67602539 2.44939453 63.67602539 3.12939453 C64.52100586 3.47357422 64.52100586 3.47357422 65.38305664 3.82470703 C68.28994787 5.47871328 70.13199668 7.5183609 72.36352539 10.00439453 C73.15114258 10.86806641 73.93875977 11.73173828 74.75024414 12.62158203 C76.53225752 14.94217552 77.28499354 16.27950142 77.67602539 19.12939453 C74.49762848 20.18886017 72.25757191 20.25003749 68.91943359 20.24291992 C67.72193481 20.24279907 66.52443604 20.24267822 65.29064941 20.24255371 C64.0320813 20.23743774 62.77351318 20.23232178 61.47680664 20.22705078 C60.3199939 20.2260437 59.16318115 20.22503662 57.97131348 20.22399902 C53.64370739 20.21876099 49.31611541 20.20479976 44.98852539 20.19189453 C35.31540039 20.17126953 25.64227539 20.15064453 15.67602539 20.12939453 C15.67602539 43.88939453 15.67602539 67.64939453 15.67602539 92.12939453 C8.41602539 92.12939453 1.15602539 92.12939453 -6.32397461 92.12939453 C-7.59883268 88.30482031 -7.46332064 84.71117382 -7.45336914 80.7265625 C-7.45512146 79.8694165 -7.45687378 79.01227051 -7.4586792 78.12915039 C-7.46308406 75.29327374 -7.46016503 72.45745933 -7.45678711 69.62158203 C-7.45746042 67.65528349 -7.45843067 65.68898503 -7.45968628 63.72268677 C-7.4611613 59.6019003 -7.4590145 55.48113551 -7.4543457 51.36035156 C-7.44864105 46.06602192 -7.45193332 40.77174288 -7.45791817 35.47741508 C-7.46152267 31.41809708 -7.46038584 27.35879117 -7.45779037 23.29947281 C-7.45712119 21.34653848 -7.45794925 19.39360307 -7.46026993 17.44067001 C-7.46279545 14.71822931 -7.45895764 11.99587196 -7.45336914 9.2734375 C-7.45539337 8.45888092 -7.4574176 7.64432434 -7.45950317 6.80508423 C-7.43276995 -0.1866097 -6.84586447 0.00453968 0 0 Z " fill="#4CC99C" transform="translate(104.323974609375,99.87060546875)"/>
<path d="M0 0 C2.49443789 2.49443789 2.74473408 4.27514692 3.5625 7.6875 C3.81128906 8.70199219 4.06007813 9.71648437 4.31640625 10.76171875 C5.72123058 17.41657228 6.1696684 23.82329008 6.203125 30.59765625 C6.20882507 31.50897812 6.21452515 32.42029999 6.22039795 33.35923767 C6.22980765 35.28301854 6.23636582 37.20681524 6.24023438 39.13061523 C6.24988985 42.02943165 6.28093129 44.92752291 6.3125 47.82617188 C6.37352619 58.32408639 5.89330535 67.84439868 3 78 C2.74992187 78.91225342 2.49984375 79.82450684 2.2421875 80.7644043 C-3.83368049 101.81831534 -13.89876175 120.76298153 -28.95703125 136.78125 C-31.09361888 139.10167404 -33.05524977 141.51771206 -35 144 C-35.66 143.67 -36.32 143.34 -37 143 C-36.47792969 142.45214844 -35.95585937 141.90429688 -35.41796875 141.33984375 C-5.63195157 109.25858182 5.43451634 72.05894723 4.31529236 29.00172424 C4.03930231 21.56368652 2.81452019 14.51924194 0.875 7.3515625 C0 4 0 4 0 0 Z " fill="#E9F9F6" transform="translate(278,100)"/>
<path d="M0 0 C-1.28301448 3.84904344 -3.1160378 5.01929806 -6.25 7.5625 C-7.68085938 8.74005859 -7.68085938 8.74005859 -9.140625 9.94140625 C-11.74303365 11.81499827 -13.97961908 12.98034586 -17 14 C-13.71529745 10.60580737 -10.29302848 7.38092265 -6.8125 4.1875 C-5.95269531 3.39730469 -5.09289062 2.60710937 -4.20703125 1.79296875 C-2 0 -2 0 0 0 Z " fill="#EFFAF7" transform="translate(241,244)"/>
</svg>
